<svg height="512" viewBox="0 0 46 60" width="512" xmlns="http://www.w3.org/2000/svg"><g id="Page-1" fill="none" fill-rule="evenodd"><g id="057---phone-notification" fill="rgb(0,0,0)" fill-rule="nonzero"><path id="Shape" d="m32 0h-28c-2.209139 0-4 1.790861-4 4v52c0 2.209139 1.790861 4 4 4h28c2.209139 0 4-1.790861 4-4v-29.051c5.6682589-.5086509 10.0113831-5.2589645 10.0113831-10.95s-4.3431242-10.44134913-10.0113831-10.95v-1.049c0-2.209139-1.790861-4-4-4zm-6.309 2-1.283 1.368c-.3778598.40298537-.9055734.63173367-1.458.632h-9.9c-.5526257-.00070589-1.0804819-.22935917-1.459-.632l-1.282-1.368zm-23.691 2c0-1.1045695.8954305-2 2-2h3.567l2.565 2.735c.7567936.80574999 1.8125738 1.2634477 2.918 1.265h9.9c1.1055502-.00095651 2.1615565-.45875227 2.918-1.265l2.565-2.735h3.567c1.1045695 0 2 .8954305 2 2v1.051c-3.3486465.30830926-6.3723121 2.13142337-8.208 4.949h-18.792c-1.65685425 0-3 1.3431458-3 3v2c0 1.6568542 1.34314575 3 3 3h17.191c.1268425.6834002.318715 1.3531121.573 2h-17.764c-1.65685425 0-3 1.3431458-3 3v2c0 1.6568542 1.34314575 3 3 3h22c1.0812217-.0079007 2.0745411-.5970155 2.6-1.542.7790648.2531165 1.5841236.4178181 2.4.491v24.051c0 1.1045695-.8954305 2-2 2h-28c-1.1045695 0-2-.8954305-2-2zm27.735 21.655c-.1840836.2152197-.4518227.3408931-.735.345h-22c-.55228475 0-1-.4477153-1-1v-2c0-.5522847.44771525-1 1-1h18.792c.9945784 1.5233625 2.3487184 2.778595 3.943 3.655zm-5.735-9.655h-17c-.55228475 0-1-.4477153-1-1v-2c0-.5522847.44771525-1 1-1h17.764c-.5030672 1.2736793-.7622338 2.6305722-.764 4zm8 42h-28c-1.1045695 0-2-.8954305-2-2v-1.556c.60534654.3599241 1.29574677.5518554 2 .556h28c.7042532-.0041446 1.3946535-.1960759 2-.556v1.556c0 1.1045695-.8954305 2-2 2zm12-42c0 3.6401602-2.1927796 6.9218868-5.5558491 8.3149158s-7.23413.6230272-9.8081119-1.9509548c-2.573982-2.5739819-3.3439838-6.4450424-1.9509548-9.8081119s4.6747556-5.5558491 8.3149158-5.5558491c4.9682782.00551113 8.9944889 4.0317218 9 9z"/><path id="Shape" d="m7 38h22c1.6568542 0 3-1.3431458 3-3v-2c0-1.6568542-1.3431458-3-3-3h-22c-1.65685425 0-3 1.3431458-3 3v2c0 1.6568542 1.34314575 3 3 3zm-1-5c0-.5522847.44771525-1 1-1h22c.5522847 0 1 .4477153 1 1v2c0 .5522847-.4477153 1-1 1h-22c-.55228475 0-1-.4477153-1-1z"/><path id="Shape" d="m32.99 11c-.5522847.0027614-.9977614.4527153-.995 1.005.0027615.5522847.4527153.9977614 1.005.995.7008098-.0298877 1.3852545-.22119 2-.559v9.559c0 .5522847.4477153 1 1 1s1-.4477153 1-1v-12c.0052636-.46823782-.3151034-.87742618-.770926-.98466446-.4558227-.10723828-.9250221.11619422-1.129074.53766446-.3944361.8245488-1.1987178 1.3761107-2.11 1.447z"/></g></g></svg>