<?xml version="1.0"?>
<svg xmlns="http://www.w3.org/2000/svg" width="512" height="512" viewBox="0 0 512 512"><g><path d="M440,24h15.355l-21.6,27A8,8,0,0,0,440,64h32a8,8,0,0,0,0-16H456.645l21.6-27A8,8,0,0,0,472,8H440a8,8,0,0,0,0,16Z"/><path d="M376,248h15.355l-21.6,27A8,8,0,0,0,376,288h32a8,8,0,0,0,0-16H392.645l21.6-27A8,8,0,0,0,408,232H376a8,8,0,0,0,0,16Z"/><path d="M144,176a8,8,0,0,0,0-16H128.645l21.6-27A8,8,0,0,0,144,120H112a8,8,0,0,0,0,16h15.355l-21.6,27A8,8,0,0,0,112,176Z"/><path d="M240,232a8,8,0,0,0,0-16H224a8,8,0,0,0,0,16Z"/><path d="M272,232h16a8,8,0,0,0,0-16H272a8,8,0,0,0,0,16Z"/><path d="M240,264a8,8,0,0,0,8,8h16a8,8,0,0,0,0-16H248A8,8,0,0,0,240,264Z"/><path d="M456,384H402.25l-10.01-40H408a48.051,48.051,0,0,0,48-48V120a48.051,48.051,0,0,0-48-48H104a48.051,48.051,0,0,0-48,48V296a48.051,48.051,0,0,0,48,48h15.76l-10.01,40H56A48.051,48.051,0,0,0,8,432v64a8,8,0,0,0,8,8H496a8,8,0,0,0,8-8V432A48.051,48.051,0,0,0,456,384ZM104,328a32.042,32.042,0,0,1-32-32V120a32.042,32.042,0,0,1,32-32H408a32.042,32.042,0,0,1,32,32V296a32.042,32.042,0,0,1-32,32H386.34a47.918,47.918,0,0,0-41.57-24H296V291.97A60.117,60.117,0,0,0,318.79,256H320a24.032,24.032,0,0,0,24-24V180a84.092,84.092,0,0,0-84-84h-8a84.092,84.092,0,0,0-84,84v52a24.032,24.032,0,0,0,24,24h1.21A60.117,60.117,0,0,0,216,291.97V304H167.23a47.918,47.918,0,0,0-41.57,24Zm80-136V180a68.071,68.071,0,0,1,68-68h8a68.071,68.071,0,0,1,68,68v12h-8v-4c0-1.53-.06-3.06-.17-4.56a8,8,0,0,0-10.94-6.81C270.77,191.81,200.7,192,200,192Zm8,16v32a8.011,8.011,0,0,1-8-8V208Zm136,0v24a8.011,8.011,0,0,1-8,8V208Zm-120-.12c18.1-.45,62.86-2.58,96-12.63V244a44.052,44.052,0,0,1-44,44h-8a44.052,44.052,0,0,1-44-44Zm72,92.68V312c0,8.67-10.99,16-24,16s-23.99-7.32-24-15.99V300.56A59.723,59.723,0,0,0,252,304h8A59.723,59.723,0,0,0,280,300.56ZM217.27,320c4.45,13.79,20.13,24,38.73,24s34.28-10.21,38.73-24h50.04a31.949,31.949,0,0,1,29.28,19.09c.01.02.01.03.02.05a32.239,32.239,0,0,1,1.74,5.1L385.75,384H126.25l9.94-39.76a32.239,32.239,0,0,1,1.74-5.1c.01-.02.01-.03.02-.05A31.949,31.949,0,0,1,167.23,320h50.04ZM488,488H24V432a32.036,32.036,0,0,1,32-32H456a32.042,32.042,0,0,1,32,32Z"/></g></svg>
