<?xml version="1.0" encoding="iso-8859-1"?>
<!-- Generator: Adobe Illustrator 16.0.0, SVG Export Plug-In . SVG Version: 6.00 Build 0)  -->
<!DOCTYPE svg PUBLIC "-//W3C//DTD SVG 1.1//EN" "http://www.w3.org/Graphics/SVG/1.1/DTD/svg11.dtd">
<svg version="1.1" id="Capa_1" xmlns="http://www.w3.org/2000/svg" xmlns:xlink="http://www.w3.org/1999/xlink" x="0px" y="0px"
	 width="155.011px" height="155.012px" viewBox="0 0 155.011 155.012" style="enable-background:new 0 0 155.011 155.012;"
	 xml:space="preserve">
<g>
	<g>
		<g>
			<path d="M118.112,83.42c1.59-9.638-3.438-17.265-4.492-18.734L95.938,32.82c-0.474-0.854-1.283-1.471-2.23-1.702
				c-0.947-0.233-1.95-0.056-2.766,0.485c-0.385,0.255-33.31,21.954-59.518,27.696c1.659-3.146,2.271-6.866,1.466-10.606
				c-1.545-7.19-9.139-14.275-18.655-12.055C5.8,38.606,0.358,46.825,2.176,55.293c1.548,7.189,8.001,12.408,15.345,12.409
				c0.001,0,0.001,0,0.002,0c28.104-0.784,63.04-21.254,74.106-28.219l15.977,28.793c0.084,0.153,0.183,0.299,0.287,0.438
				c0.047,0.06,4.537,6.139,3.312,13.567c-0.926,5.604-4.848,10.746-11.709,15.312c-0.27,0.186-26.631,18.939-14.604,55.014
				c0.488,1.467,1.986,2.936,4.426,2.215c1.854-0.549,2.826-2.596,2.215-4.428c-10.322-30.974,11.041-46.408,11.896-47.009
				C111.917,97.734,116.859,91.02,118.112,83.42z M9.022,53.821c-1.008-4.693,1.979-9.394,6.686-10.34
				c5.296-1.064,9.484,2.696,10.341,6.683c1.009,4.692-2.034,9.142-6.685,10.34C13.878,61.917,9.88,57.806,9.022,53.821z"/>
			<path d="M151.741,148.109c-0.28-0.228-28.242-22.84-41.416-40.067c-1.174-1.535-3.369-1.83-4.905-0.654
				c-1.535,1.175-1.828,3.37-0.654,4.906c13.68,17.892,41.381,40.358,42.584,41.267c1.467,1.107,3.824,1.619,5.217-0.393
				C153.667,151.578,153.247,149.322,151.741,148.109z"/>
			<path d="M94.417,94.646c1.756-0.809,2.455-2.945,1.604-4.684L80.687,58.629c-0.439-0.903-1.251-1.573-2.221-1.838
				c-0.973-0.264-2.009-0.1-2.849,0.453c-26.089,17.181-57.76,17.423-58.076,17.423c-1.933,0.001-3.498,1.566-3.498,3.5
				c0,1.935,1.567,3.5,3.5,3.5c1.321,0,31.479-0.193,58.567-16.465l13.622,27.837C90.342,94.279,92.191,95.667,94.417,94.646z"/>
		</g>
		<path d="M89.586,16.604C89.586,7.448,82.138,0,72.982,0S56.377,7.449,56.377,16.604c0,9.155,7.45,16.604,16.605,16.604
			S89.586,25.759,89.586,16.604z M63.566,16.604c0-5.191,4.225-9.415,9.416-9.415c5.191,0,9.414,4.224,9.414,9.415
			s-4.223,9.415-9.414,9.415C67.791,26.019,63.566,21.795,63.566,16.604z"/>
	</g>
</g>
<g>
</g>
<g>
</g>
<g>
</g>
<g>
</g>
<g>
</g>
<g>
</g>
<g>
</g>
<g>
</g>
<g>
</g>
<g>
</g>
<g>
</g>
<g>
</g>
<g>
</g>
<g>
</g>
<g>
</g>
</svg>
