<svg width="149" height="67" viewBox="0 0 149 67" fill="none" xmlns="http://www.w3.org/2000/svg">
<path d="M6.86456 25.072C6.86456 26.6987 7.02456 28.2187 7.34456 29.632C7.69123 31.0187 8.21123 32.232 8.90456 33.272C9.62456 34.2853 10.5312 35.0853 11.6246 35.672C12.7179 36.2587 14.0246 36.552 15.5446 36.552C16.9312 36.552 18.1179 36.2853 19.1046 35.752C20.0912 35.192 20.8912 34.432 21.5046 33.472C22.1446 32.512 22.6112 31.4053 22.9046 30.152C23.1979 28.872 23.3446 27.512 23.3446 26.072C23.3446 24.392 23.1846 22.8587 22.8646 21.472C22.5446 20.0587 22.0246 18.8453 21.3046 17.832C20.6112 16.8187 19.7179 16.032 18.6246 15.472C17.5579 14.8853 16.2646 14.592 14.7446 14.592C13.3312 14.592 12.1179 14.8587 11.1046 15.392C10.1179 15.9253 9.30456 16.6587 8.66456 17.592C8.05123 18.5253 7.5979 19.632 7.30456 20.912C7.01123 22.192 6.86456 23.5787 6.86456 25.072ZM27.9446 25.352C27.9446 28.8187 27.1312 31.6053 25.5046 33.712C23.9046 35.8187 21.4912 37.1387 18.2646 37.672C18.5046 37.8053 18.9312 37.992 19.5446 38.232C20.1579 38.4987 20.8912 38.792 21.7446 39.112C22.5979 39.432 23.5312 39.752 24.5446 40.072C25.5846 40.4187 26.6379 40.7253 27.7046 40.992L25.5046 45.232L15.0646 37.912C10.8512 37.912 7.66456 36.872 5.50456 34.792C3.34456 32.6853 2.26456 29.672 2.26456 25.752C2.26456 21.7253 3.3579 18.632 5.54456 16.472C7.73123 14.2853 10.9579 13.192 15.2246 13.192C19.4379 13.192 22.6112 14.232 24.7446 16.312C26.8779 18.392 27.9446 21.4053 27.9446 25.352ZM31.2036 37.552C30.777 37.5787 30.3236 37.592 29.8436 37.592C29.3903 37.6187 29.0436 37.6453 28.8036 37.672C29.177 36.6853 29.6703 35.3787 30.2836 33.752C30.897 32.0987 31.6036 30.232 32.4036 28.152C33.2036 26.0453 34.0703 23.752 35.0036 21.272C35.937 18.792 36.9103 16.2053 37.9236 13.512L41.1236 12.872L50.4036 37.552H49.2836C48.8836 37.552 48.5636 37.552 48.3236 37.552C48.1103 37.552 47.897 37.552 47.6836 37.552C47.497 37.5787 47.2836 37.592 47.0436 37.592C46.8036 37.6187 46.4836 37.632 46.0836 37.632C45.977 37.3653 45.817 36.9787 45.6036 36.472C45.417 35.9387 45.2036 35.3653 44.9636 34.752C44.7503 34.1387 44.5236 33.512 44.2836 32.872C44.0436 32.232 43.817 31.632 43.6036 31.072C43.417 30.512 43.2436 30.0453 43.0836 29.672C42.9503 29.272 42.8703 29.032 42.8436 28.952H34.2436C34.217 29.0587 34.057 29.4987 33.7636 30.272C33.497 31.0453 33.1903 31.9253 32.8436 32.912C32.5236 33.872 32.2036 34.8053 31.8836 35.712C31.5636 36.592 31.337 37.2053 31.2036 37.552ZM37.4836 19.752C37.0303 20.9787 36.577 22.2053 36.1236 23.432C35.697 24.6587 35.257 25.912 34.8036 27.192H42.2036L38.4836 17.392H38.3236C38.1903 17.792 38.0436 18.192 37.8836 18.592C37.7503 18.992 37.617 19.3787 37.4836 19.752ZM54.0161 37.552C53.5895 37.5787 53.1361 37.592 52.6561 37.592C52.2028 37.6187 51.8561 37.6453 51.6161 37.672C51.9895 36.6853 52.4828 35.3787 53.0961 33.752C53.7095 32.0987 54.4161 30.232 55.2161 28.152C56.0161 26.0453 56.8828 23.752 57.8161 21.272C58.7495 18.792 59.7228 16.2053 60.7361 13.512L63.9361 12.872L73.2161 37.552H72.0961C71.6961 37.552 71.3761 37.552 71.1361 37.552C70.9228 37.552 70.7095 37.552 70.4961 37.552C70.3095 37.5787 70.0961 37.592 69.8561 37.592C69.6161 37.6187 69.2961 37.632 68.8961 37.632C68.7895 37.3653 68.6295 36.9787 68.4161 36.472C68.2295 35.9387 68.0161 35.3653 67.7761 34.752C67.5628 34.1387 67.3361 33.512 67.0961 32.872C66.8561 32.232 66.6295 31.632 66.4161 31.072C66.2295 30.512 66.0561 30.0453 65.8961 29.672C65.7628 29.272 65.6828 29.032 65.6561 28.952H57.0561C57.0295 29.0587 56.8695 29.4987 56.5761 30.272C56.3095 31.0453 56.0028 31.9253 55.6561 32.912C55.3361 33.872 55.0161 34.8053 54.6961 35.712C54.3761 36.592 54.1495 37.2053 54.0161 37.552ZM60.2961 19.752C59.8428 20.9787 59.3895 22.2053 58.9361 23.432C58.5095 24.6587 58.0695 25.912 57.6161 27.192H65.0161L61.2961 17.392H61.1361C61.0028 17.792 60.8561 18.192 60.6961 18.592C60.5628 18.992 60.4295 19.3787 60.2961 19.752ZM84.8286 23.072C85.8153 23.5253 86.762 23.992 87.6686 24.472C88.602 24.9253 89.4153 25.4587 90.1086 26.072C90.802 26.6853 91.3486 27.3787 91.7486 28.152C92.1753 28.9253 92.3886 29.832 92.3886 30.872C92.3886 32.0453 92.1486 33.0853 91.6686 33.992C91.2153 34.872 90.5886 35.6053 89.7886 36.192C89.0153 36.7787 88.0953 37.2187 87.0286 37.512C85.9886 37.8053 84.882 37.952 83.7086 37.952C82.1886 37.952 80.7886 37.832 79.5086 37.592C78.2286 37.352 77.1886 37.1253 76.3886 36.912L76.1086 32.512H77.1886C77.5086 33.1253 77.842 33.672 78.1886 34.152C78.562 34.632 78.9886 35.0453 79.4686 35.392C79.9486 35.712 80.4953 35.9653 81.1086 36.152C81.7486 36.312 82.482 36.392 83.3086 36.392C84.002 36.392 84.6553 36.312 85.2686 36.152C85.9086 35.9653 86.4553 35.6987 86.9086 35.352C87.3886 34.9787 87.762 34.5387 88.0286 34.032C88.2953 33.4987 88.4286 32.8853 88.4286 32.192C88.4286 30.992 88.042 30.072 87.2686 29.432C86.522 28.7653 85.5353 28.1653 84.3086 27.632C83.0286 27.072 81.8686 26.5253 80.8286 25.992C79.8153 25.4587 78.9353 24.8987 78.1886 24.312C77.4686 23.6987 76.9086 23.0187 76.5086 22.272C76.1086 21.5253 75.9086 20.6453 75.9086 19.632C75.9086 18.5653 76.122 17.632 76.5486 16.832C76.9753 16.032 77.5486 15.3653 78.2686 14.832C79.0153 14.2987 79.8686 13.8987 80.8286 13.632C81.8153 13.3653 82.842 13.232 83.9086 13.232C84.522 13.232 85.1886 13.272 85.9086 13.352C86.6286 13.4053 87.3353 13.4853 88.0286 13.592C88.722 13.672 89.3753 13.7787 89.9886 13.912C90.6286 14.0453 91.1753 14.1653 91.6286 14.272L91.1086 18.392H90.1486C89.6686 17.352 88.9086 16.4987 87.8686 15.832C86.8553 15.1653 85.602 14.832 84.1086 14.832C82.8553 14.832 81.8153 15.1253 80.9886 15.712C80.1886 16.272 79.7886 17.1253 79.7886 18.272C79.7886 19.232 80.1086 20.0453 80.7486 20.712C81.3886 21.3787 82.4153 22.0187 83.8286 22.632L84.8286 23.072ZM100.913 30.392C100.913 31.592 100.913 32.632 100.913 33.512C100.913 34.392 100.927 35.1387 100.953 35.752C100.98 36.4453 101.007 37.0453 101.033 37.552C100.82 37.552 100.513 37.552 100.113 37.552C99.7133 37.552 99.2866 37.552 98.8333 37.552C98.4066 37.5787 97.98 37.592 97.5533 37.592C97.1533 37.592 96.8466 37.592 96.6333 37.592C96.6333 37.112 96.6466 36.5253 96.6733 35.832C96.7 35.2187 96.7133 34.472 96.7133 33.592C96.74 32.6853 96.7533 31.6187 96.7533 30.392V20.392C96.7533 19.2987 96.74 18.3387 96.7133 17.512C96.7133 16.6587 96.7 15.9387 96.6733 15.352C96.6466 14.6587 96.6333 14.0587 96.6333 13.552C96.9533 13.552 97.3533 13.552 97.8333 13.552C98.34 13.5253 98.8333 13.4987 99.3133 13.472C99.8466 13.4453 100.42 13.4053 101.033 13.352C101.007 13.912 100.98 14.5387 100.953 15.232C100.927 15.8453 100.913 16.5787 100.913 17.432C100.913 18.2853 100.913 19.272 100.913 20.392V30.392ZM106.633 13.672C107.247 13.6453 107.913 13.6187 108.633 13.592C109.353 13.5387 110.087 13.4987 110.833 13.472C111.607 13.4453 112.367 13.432 113.113 13.432C113.86 13.4053 114.553 13.392 115.193 13.392C117.567 13.392 119.593 13.632 121.273 14.112C122.953 14.592 124.313 15.3253 125.353 16.312C126.42 17.272 127.193 18.4853 127.673 19.952C128.18 21.392 128.433 23.0853 128.433 25.032C128.433 27.752 127.94 30.0987 126.953 32.072C125.967 34.0187 124.46 35.4453 122.433 36.352C121.713 36.6453 121.033 36.872 120.393 37.032C119.753 37.192 119.087 37.312 118.393 37.392C117.727 37.472 116.98 37.5253 116.153 37.552C115.353 37.552 114.42 37.552 113.353 37.552H111.033C110.847 37.552 110.553 37.552 110.153 37.552C109.753 37.552 109.327 37.552 108.873 37.552C108.42 37.5787 107.98 37.592 107.553 37.592C107.153 37.592 106.847 37.592 106.633 37.592C106.633 37.112 106.647 36.5253 106.673 35.832C106.7 35.2187 106.713 34.472 106.713 33.592C106.74 32.6853 106.753 31.6187 106.753 30.392V20.392C106.753 19.2987 106.74 18.3387 106.713 17.512C106.713 16.6587 106.7 15.952 106.673 15.392C106.647 14.7253 106.633 14.152 106.633 13.672ZM110.953 36.112H114.313C117.62 36.112 120.033 35.232 121.553 33.472C123.1 31.712 123.873 29.1253 123.873 25.712C123.873 24.032 123.727 22.5253 123.433 21.192C123.14 19.8587 122.593 18.7253 121.793 17.792C121.02 16.8587 119.94 16.1387 118.553 15.632C117.167 15.1253 115.38 14.872 113.193 14.872C112.847 14.872 112.5 14.8853 112.153 14.912C111.807 14.9387 111.42 14.9653 110.993 14.992C110.967 15.5253 110.94 16.2453 110.913 17.152C110.913 18.0587 110.913 19.1387 110.913 20.392V30.392L110.953 36.112Z" fill="black"/>
<rect x="5.36456" y="46.25" width="122" height="20" rx="3" fill="#E2E2E2"/>
<path d="M14.1807 57.6318V61.25H12.9619V52.0078H16.3706C17.382 52.0078 18.1733 52.266 18.7446 52.7822C19.3201 53.2985 19.6079 53.9819 19.6079 54.8325C19.6079 55.7297 19.3265 56.4215 18.7637 56.9082C18.2051 57.3906 17.4032 57.6318 16.3579 57.6318H14.1807ZM14.1807 56.6353H16.3706C17.0223 56.6353 17.5216 56.4829 17.8687 56.1782C18.2157 55.8693 18.3892 55.425 18.3892 54.8452C18.3892 54.2951 18.2157 53.855 17.8687 53.5249C17.5216 53.1948 17.0456 53.0234 16.4404 53.0107H14.1807V56.6353ZM25.3906 58.8379H21.5186L20.6489 61.25H19.3921L22.9214 52.0078H23.9878L27.5234 61.25H26.2729L25.3906 58.8379ZM21.8867 57.835H25.0288L23.4546 53.5122L21.8867 57.835ZM31.1162 56.9526L29.9863 58.127V61.25H28.7676V52.0078H29.9863V56.5781L34.0933 52.0078H35.5659L31.9287 56.0894L35.8516 61.25H34.3916L31.1162 56.9526ZM38.2256 61.25H37.0068V52.0078H38.2256V61.25ZM43.1831 57.1304C42.1379 56.8299 41.3761 56.4618 40.8979 56.0259C40.424 55.5858 40.187 55.0441 40.187 54.4009C40.187 53.673 40.4769 53.0721 41.0566 52.5981C41.6406 52.12 42.3981 51.8809 43.3291 51.8809C43.9639 51.8809 44.5288 52.0036 45.0239 52.249C45.5233 52.4945 45.9084 52.833 46.1792 53.2646C46.4543 53.6963 46.5918 54.1681 46.5918 54.6802H45.3667C45.3667 54.1216 45.189 53.6836 44.8335 53.3662C44.478 53.0446 43.9766 52.8838 43.3291 52.8838C42.7282 52.8838 42.2585 53.0171 41.9199 53.2837C41.5856 53.5461 41.4185 53.9121 41.4185 54.3818C41.4185 54.7585 41.5771 55.078 41.8945 55.3403C42.2161 55.5985 42.7599 55.8354 43.5259 56.0513C44.2961 56.2671 44.897 56.5062 45.3286 56.7686C45.7645 57.0267 46.0861 57.3293 46.2935 57.6763C46.505 58.0233 46.6108 58.4316 46.6108 58.9014C46.6108 59.6504 46.3188 60.2513 45.7349 60.7041C45.1509 61.1527 44.3701 61.377 43.3926 61.377C42.7578 61.377 42.1654 61.2563 41.6152 61.0151C41.0651 60.7697 40.6398 60.4354 40.3394 60.0122C40.0431 59.589 39.895 59.1087 39.895 58.5713H41.1201C41.1201 59.1299 41.3254 59.5721 41.7358 59.8979C42.1506 60.2196 42.7028 60.3804 43.3926 60.3804C44.0358 60.3804 44.5288 60.2492 44.8716 59.9868C45.2144 59.7244 45.3857 59.3669 45.3857 58.9141C45.3857 58.4613 45.2271 58.1121 44.9097 57.8667C44.5923 57.617 44.0168 57.3716 43.1831 57.1304ZM54.5645 53.0107H51.5938V61.25H50.3813V53.0107H47.417V52.0078H54.5645V53.0107ZM60.5312 58.8379H56.6592L55.7896 61.25H54.5327L58.062 52.0078H59.1284L62.6641 61.25H61.4136L60.5312 58.8379ZM57.0273 57.835H60.1694L58.5952 53.5122L57.0273 57.835ZM71.0112 61.25H69.7861L65.1333 54.1279V61.25H63.9082V52.0078H65.1333L69.7988 59.1616V52.0078H71.0112V61.25ZM74.4834 61.25H73.2646V52.0078H74.4834V61.25ZM79.9424 61.25V52.0078H82.9639C83.9668 52.0078 84.7201 52.2152 85.2236 52.6299C85.7314 53.0446 85.9854 53.6582 85.9854 54.4707C85.9854 54.9023 85.8626 55.2853 85.6172 55.6196C85.3717 55.9497 85.0374 56.2057 84.6143 56.3877C85.1136 56.5273 85.5072 56.7939 85.7949 57.1875C86.0869 57.5768 86.2329 58.0423 86.2329 58.584C86.2329 59.4134 85.9642 60.0651 85.4268 60.5391C84.8893 61.013 84.1297 61.25 83.1479 61.25H79.9424ZM81.1611 56.9272V60.2534H83.1733C83.7404 60.2534 84.1868 60.1074 84.5127 59.8154C84.8428 59.5192 85.0078 59.113 85.0078 58.5967C85.0078 57.4837 84.4027 56.9272 83.1924 56.9272H81.1611ZM81.1611 55.9497H83.002C83.5352 55.9497 83.9604 55.8164 84.2778 55.5498C84.5994 55.2832 84.7603 54.9214 84.7603 54.4644C84.7603 53.9565 84.6121 53.5884 84.3159 53.3599C84.0197 53.1271 83.569 53.0107 82.9639 53.0107H81.1611V55.9497ZM91.4316 57.5112H89.2607V61.25H88.0356V52.0078H91.0952C92.1362 52.0078 92.936 52.2448 93.4946 52.7188C94.0575 53.1927 94.3389 53.8825 94.3389 54.7881C94.3389 55.3636 94.1823 55.8651 93.8691 56.2925C93.5602 56.7199 93.1286 57.0394 92.5742 57.251L94.7451 61.1738V61.25H93.4375L91.4316 57.5112ZM89.2607 56.5146H91.1333C91.7384 56.5146 92.2188 56.3581 92.5742 56.0449C92.9339 55.7318 93.1138 55.3128 93.1138 54.7881C93.1138 54.2168 92.9424 53.7788 92.5996 53.4741C92.2611 53.1694 91.7702 53.015 91.127 53.0107H89.2607V56.5146ZM101.156 58.8379H97.2842L96.4146 61.25H95.1577L98.687 52.0078H99.7534L103.289 61.25H102.039L101.156 58.8379ZM97.6523 57.835H100.794L99.2202 53.5122L97.6523 57.835ZM111.636 61.25H110.411L105.758 54.1279V61.25H104.533V52.0078H105.758L110.424 59.1616V52.0078H111.636V61.25ZM113.801 61.25V52.0078H116.41C117.214 52.0078 117.925 52.1855 118.542 52.541C119.16 52.8965 119.636 53.4022 119.971 54.0581C120.309 54.714 120.481 55.4673 120.485 56.3179V56.9082C120.485 57.7799 120.316 58.5438 119.977 59.1997C119.643 59.8556 119.162 60.3592 118.536 60.7104C117.914 61.0617 117.188 61.2415 116.359 61.25H113.801ZM115.02 53.0107V60.2534H116.302C117.241 60.2534 117.971 59.9614 118.492 59.3774C119.016 58.7935 119.279 57.9619 119.279 56.8828V56.3433C119.279 55.2938 119.031 54.4792 118.536 53.8994C118.045 53.3154 117.347 53.0192 116.441 53.0107H115.02Z" fill="#2B2B2B"/>
<path d="M135.647 20.448H134.48V14.3103H132.381V13.3093H137.747V14.3103H135.647V20.448ZM142.331 20.448L140.261 14.4861H140.222C140.277 15.3715 140.305 16.2016 140.305 16.9763V20.448H139.245V13.3093H140.891L142.873 18.988H142.903L144.944 13.3093H146.594V20.448H145.471V16.9177C145.471 16.5629 145.479 16.1007 145.495 15.531C145.515 14.9613 145.531 14.6163 145.544 14.4958H145.505L143.362 20.448H142.331Z" fill="white"/>
<path d="M135.647 20.448H134.48V14.3103H132.381V13.3093H137.747V14.3103H135.647V20.448ZM142.331 20.448L140.261 14.4861H140.222C140.277 15.3715 140.305 16.2016 140.305 16.9763V20.448H139.245V13.3093H140.891L142.873 18.988H142.903L144.944 13.3093H146.594V20.448H145.471V16.9177C145.471 16.5629 145.479 16.1007 145.495 15.531C145.515 14.9613 145.531 14.6163 145.544 14.4958H145.505L143.362 20.448H142.331Z" fill="black"/>
</svg>
