<svg width="146" height="38" viewBox="0 0 146 38" fill="none" xmlns="http://www.w3.org/2000/svg">
<path d="M53.8011 28H49.7691V10.864H59.7291V14.176H53.8011V18.064H59.2971V21.376H53.8011V28ZM69.9277 28H61.5997V25.672L63.7117 24.784V14.08L61.5997 13.192V10.864H69.9277V13.192L67.8157 14.08V24.784L69.9277 25.672V28ZM79.7698 28H75.6898V14.248H71.2498V10.864H84.2098V14.248H79.7698V28ZM108.593 10.864L104.297 28H99.5449L97.5529 19.72C97.5049 19.56 97.4409 19.304 97.3609 18.952C97.2969 18.6 97.2249 18.216 97.1449 17.8C97.0649 17.384 96.9849 16.984 96.9049 16.6C96.8409 16.2 96.8009 15.872 96.7849 15.616C96.7529 15.872 96.6969 16.2 96.6169 16.6C96.5529 16.984 96.4809 17.384 96.4009 17.8C96.3209 18.216 96.2409 18.6 96.1609 18.952C96.0809 19.304 96.0249 19.56 95.9929 19.72L93.9769 28H89.2489L84.9289 10.864H88.9129L90.9529 19.864C91.0329 20.2 91.1289 20.648 91.2409 21.208C91.3529 21.768 91.4569 22.344 91.5529 22.936C91.6649 23.512 91.7449 23.992 91.7929 24.376C91.8569 23.864 91.9529 23.264 92.0809 22.576C92.2089 21.872 92.3369 21.2 92.4649 20.56C92.6089 19.904 92.7289 19.392 92.8249 19.024L94.8649 10.864H98.6809L100.721 19.024C100.785 19.296 100.865 19.656 100.961 20.104C101.057 20.552 101.153 21.04 101.249 21.568C101.345 22.08 101.433 22.584 101.513 23.08C101.609 23.576 101.681 24.008 101.729 24.376C101.777 23.992 101.849 23.512 101.945 22.936C102.057 22.344 102.169 21.776 102.281 21.232C102.393 20.672 102.489 20.224 102.569 19.888L104.609 10.864H108.593ZM117.881 28H109.553V25.672L111.665 24.784V14.08L109.553 13.192V10.864H117.881V13.192L115.769 14.08V24.784L117.881 25.672V28ZM131.299 23.032C131.299 24.008 131.059 24.896 130.579 25.696C130.099 26.48 129.379 27.104 128.419 27.568C127.459 28.016 126.251 28.24 124.795 28.24C123.787 28.24 122.883 28.152 122.083 27.976C121.283 27.8 120.507 27.536 119.755 27.184V23.464C120.619 23.864 121.499 24.2 122.395 24.472C123.307 24.744 124.179 24.88 125.011 24.88C125.795 24.88 126.363 24.736 126.715 24.448C127.067 24.144 127.243 23.768 127.243 23.32C127.243 22.776 126.963 22.336 126.403 22C125.843 21.648 125.051 21.232 124.027 20.752C123.355 20.448 122.699 20.088 122.059 19.672C121.435 19.24 120.923 18.704 120.523 18.064C120.123 17.408 119.923 16.576 119.923 15.568C119.923 13.968 120.475 12.744 121.579 11.896C122.699 11.048 124.179 10.624 126.019 10.624C127.011 10.624 127.931 10.744 128.779 10.984C129.627 11.208 130.459 11.488 131.275 11.824L129.979 15.016C129.211 14.68 128.491 14.424 127.819 14.248C127.163 14.056 126.523 13.96 125.899 13.96C125.243 13.96 124.755 14.096 124.435 14.368C124.115 14.64 123.955 14.984 123.955 15.4C123.955 15.736 124.067 16.032 124.291 16.288C124.515 16.528 124.867 16.776 125.347 17.032C125.827 17.288 126.459 17.6 127.243 17.968C128.091 18.352 128.819 18.768 129.427 19.216C130.035 19.664 130.499 20.192 130.819 20.8C131.139 21.392 131.299 22.136 131.299 23.032ZM144.222 28H134.214V10.864H144.222V14.176H138.294V17.464H143.79V20.776H138.294V24.64H144.222V28Z" fill="black"/>
<rect width="37" height="38" rx="6" fill="black"/>
<path d="M9.49215 20.6167L16.6829 13.3083C17.6154 12.3816 18.1957 11.0758 18.1957 9.64364C18.1957 8.23252 17.6362 6.92671 16.7244 6L9.5336 13.3083C8.60108 14.235 8.02084 15.5409 8.02084 16.973C8.02084 18.4052 8.58036 19.69 9.49215 20.6167ZM26.8992 16.3412L19.7084 23.6495C18.7759 24.5762 18.1957 25.8821 18.1957 27.3142C18.1957 28.7254 18.7552 30.0312 19.667 30.9579L26.8577 23.6495C27.7903 22.7228 28.3705 21.417 28.3705 19.9848C28.3705 18.5527 27.811 17.2679 26.8992 16.3412ZM26.8577 13.3294C27.7903 12.4027 28.3705 11.0969 28.3705 9.6647C28.3705 8.25358 27.811 6.94777 26.8992 6.02106L9.51288 23.6706C8.58036 24.6184 8.00012 25.9031 8.00012 27.3564C8.00012 28.7675 8.55963 30.0733 9.47143 31L26.8577 13.3294Z" fill="white"/>
</svg>
