<?xml version="1.0"?>
<svg xmlns="http://www.w3.org/2000/svg" id="Icons" viewBox="0 0 74 74" width="512" height="512"><path d="M37,72.1a1,1,0,0,1-.65-.24C34.947,70.664,2,42.272,2,24.665,2,12.11,11.248,1.9,22.615,1.9A19.7,19.7,0,0,1,37,8.392,19.7,19.7,0,0,1,51.385,1.9C62.752,1.9,72,12.11,72,24.665c0,17.607-32.947,46-34.35,47.2A1,1,0,0,1,37,72.1ZM22.615,3.9C12.351,3.9,4,13.213,4,24.665,4,40.057,32.315,65.649,37,69.776c4.685-4.128,33-29.724,33-45.112C70,13.213,61.649,3.9,51.385,3.9a17.843,17.843,0,0,0-13.617,6.65,1.035,1.035,0,0,1-1.536,0A17.843,17.843,0,0,0,22.615,3.9Z"/><path d="M36.581,49.648a1,1,0,0,1-.958-.713l-5.24-17.505L23.593,42.5a1,1,0,0,1-.853.477H4a1,1,0,0,1,0-2H22.181l7.667-12.5a1,1,0,0,1,1.811.236l5.261,17.578,8.392-12.922a1,1,0,0,1,.828-.456,1.071,1.071,0,0,1,.837.438l5.414,7.956H69a1,1,0,0,1,0,2H51.861a1,1,0,0,1-.827-.437l-4.865-7.15L37.42,49.192A1,1,0,0,1,36.581,49.648Z"/></svg>
