<?xml version="1.0" encoding="iso-8859-1"?>
<!-- Generator: Adobe Illustrator 19.0.0, SVG Export Plug-In . SVG Version: 6.00 Build 0)  -->
<svg version="1.1" id="Capa_1" xmlns="http://www.w3.org/2000/svg" xmlns:xlink="http://www.w3.org/1999/xlink" x="0px" y="0px"
	 viewBox="0 0 496 496" style="enable-background:new 0 0 496 496;" xml:space="preserve">
<g>
	<g>
		<g>
			<path d="M192,0H16C7.176,0,0,7.176,0,16v32c0,8.824,7.176,16,16,16h16v392c0,22.056,17.944,40,40,40h64c22.056,0,40-17.944,40-40
				V64h16c8.824,0,16-7.176,16-16V16C208,7.176,200.824,0,192,0z M192,48h-48v16h16v392c0,13.232-10.768,24-24,24H72
				c-13.232,0-24-10.768-24-24V64h80V48H16V16h176V48z"/>
			<rect x="80" y="288" width="48" height="16"/>
			<rect x="80" y="336" width="48" height="16"/>
			<rect x="80" y="384" width="48" height="16"/>
			<rect x="80" y="432" width="48" height="16"/>
			<rect x="80" y="240" width="48" height="16"/>
			<path d="M480,64c8.824,0,16-7.176,16-16V32c0-8.824-7.176-16-16-16h-17.472C459.216,6.712,450.416,0,440,0h-96
				c-10.416,0-19.216,6.712-22.528,16H304c-8.824,0-16,7.176-16,16v16c0,8.824,7.176,16,16,16h16v144c-8.824,0-16,7.176-16,16v32
				c0,8.824,7.176,16,16,16v32.808c-18.232,3.72-32,19.872-32,39.192v112c0,22.056,17.944,40,40,40h128c22.056,0,40-17.944,40-40
				V344c0-19.312-13.768-35.472-32-39.192V272c8.824,0,16-7.176,16-16v-32c0-8.824-7.176-16-16-16V64H480z M464,32h16v16h-16V32z
				 M336,24c0-4.408,3.592-8,8-8h96c4.408,0,8,3.592,8,8v184H336V24z M304,48V32h16v16H304z M480,344v112c0,13.232-10.768,24-24,24
				H328c-13.232,0-24-10.768-24-24V344c0-10.416,6.712-19.216,16-22.528V344v40v64c0,8.824,7.176,16,16,16h112
				c8.824,0,16-7.176,16-16v-64v-40v-22.528C473.288,324.784,480,333.584,480,344z M336,448v-64h32v64H336z M384,448v-72
				c0-4.408,3.592-8,8-8c4.408,0,8,3.592,8,8v72H384z M416,448v-64h32v64H416z M464,256h-32v16h16v72v24h-33.472
				c-3.312-9.288-12.112-16-22.528-16s-19.216,6.712-22.528,16H336v-24v-72h80v-16h-96v-32h144V256z"/>
		</g>
	</g>
</g>
<g>
</g>
<g>
</g>
<g>
</g>
<g>
</g>
<g>
</g>
<g>
</g>
<g>
</g>
<g>
</g>
<g>
</g>
<g>
</g>
<g>
</g>
<g>
</g>
<g>
</g>
<g>
</g>
<g>
</g>
</svg>
